<svg xmlns="http://www.w3.org/2000/svg" width="60" height="46" viewBox="0 0 60 46" fill="none"><path d="M57.6279 0V3.37425C52.7907 5.11876 49 7.87325 46.2558 11.6377C43.5116 15.3563 42.1395 19.2355 42.1395 23.2754C42.1395 24.1477 42.2791 24.7904 42.5581 25.2036C42.7442 25.479 42.9535 25.6168 43.1861 25.6168C43.4186 25.6168 43.7674 25.4561 44.2326 25.1347C45.7209 24.0788 47.6047 23.5509 49.8837 23.5509C52.5349 23.5509 54.8837 24.6297 56.9302 26.7874C58.9768 28.8992 60 31.4242 60 34.3623C60 37.4381 58.814 40.1467 56.4419 42.488C54.1163 44.8293 51.2791 46 47.9302 46C44.0233 46 40.6512 44.4162 37.814 41.2485C34.9767 38.0808 33.5581 33.8343 33.5581 28.509C33.5581 22.3114 35.4884 16.7565 39.3488 11.8443C43.2093 6.93214 49.3023 2.98403 57.6279 0ZM24.0698 0V3.37425C19.2326 5.11876 15.4419 7.87325 12.6977 11.6377C9.95349 15.3563 8.5814 19.2355 8.5814 23.2754C8.5814 24.1477 8.72093 24.7904 9 25.2036C9.18605 25.479 9.39535 25.6168 9.62791 25.6168C9.86047 25.6168 10.2093 25.4561 10.6744 25.1347C12.1628 24.0788 14.0465 23.5509 16.3256 23.5509C18.9767 23.5509 21.3256 24.6297 23.3721 26.7874C25.4186 28.8992 26.4419 31.4242 26.4419 34.3623C26.4419 37.4381 25.2558 40.1467 22.8837 42.488C20.5581 44.8293 17.7209 46 14.3721 46C10.4651 46 7.09302 44.4162 4.25581 41.2485C1.4186 38.0808 0 33.8343 0 28.509C0 22.3114 1.93023 16.7565 5.7907 11.8443C9.65116 6.93214 15.7442 2.98403 24.0698 0Z" fill="#FFC499"></path></svg>