<svg width="210" height="43" viewBox="0 0 210 43" fill="none" xmlns="http://www.w3.org/2000/svg">
<path d="M63.401 16.3208C62.7906 15.1719 62.0032 14.1261 61.0609 13.2121C60.8851 13.0405 60.7044 12.8764 60.5199 12.7172C58.2689 10.7724 55.4237 9.70298 52.4311 9.69054H52.3803C51.6994 9.69054 51.0196 9.74525 50.3523 9.85468C50.1269 9.89074 49.9041 9.93426 49.6812 9.98276C47.3622 10.4926 45.24 11.6627 43.5425 13.3676L38.4649 18.4671L36.8107 20.1284L29.2469 27.7249L29.5503 28.0296C30.4516 28.9348 31.6514 29.4347 32.9267 29.4347C34.202 29.4347 35.4005 28.9361 36.3031 28.0296L37.4001 26.9291L38.3869 25.938L43.5437 31.1159C43.8669 31.4405 44.2074 31.7476 44.5627 32.0336C44.8537 32.2674 45.1546 32.4887 45.4653 32.6964C45.0097 33.2224 44.5182 33.7198 44.0019 34.1799C42.708 35.3301 41.2495 36.2503 39.6869 36.9168C37.7443 37.7462 35.6407 38.1839 33.4938 38.1839C29.6209 38.1839 25.8866 36.7614 22.9819 34.1787L22.7343 33.9586L22.4595 34.1426C21.3154 34.9061 20.0698 35.4968 18.7587 35.8972L18.0901 36.1011L18.5742 36.6084C18.6732 36.7129 18.7747 36.8161 18.8775 36.9193C22.7814 40.8413 27.9729 43 33.495 43C34.5288 43 35.5515 42.9241 36.5557 42.7762C40.9152 42.1296 44.9379 40.1064 48.1112 36.9193C48.2313 36.7987 48.3279 36.7005 48.4121 36.6109C49.0225 35.973 49.5958 35.2916 50.1207 34.5815C50.8673 34.7183 51.6263 34.788 52.3816 34.788C55.1005 34.788 57.6808 33.9312 59.8438 32.3097C59.8723 32.2885 59.8996 32.2674 59.9256 32.2475C60.38 31.9031 60.8133 31.5226 61.2169 31.1172C63.1484 29.1773 64.3705 26.7164 64.7494 24.0007C65.1171 21.3744 64.6379 18.6474 63.401 16.3221V16.3208ZM59.153 24.9544C58.7877 25.8808 58.2429 26.7102 57.5372 27.4203C56.1604 28.803 54.3292 29.5641 52.3803 29.5641H52.3791C51.0258 29.5641 49.7282 29.1972 48.6028 28.5083C48.1075 28.2062 47.6445 27.8418 47.2247 27.419L42.0691 22.2399L44.6432 19.6547L47.2235 17.062C48.5978 15.6817 50.429 14.9207 52.3803 14.9207C53.8574 14.9207 55.2788 15.3596 56.4897 16.1903C56.8599 16.444 57.2128 16.7374 57.5372 17.062C57.5867 17.1117 57.635 17.1614 57.6821 17.2124C57.6883 17.2186 57.6944 17.2249 57.6994 17.2323C59.6284 19.2978 60.2004 22.302 59.1517 24.9532L59.153 24.9544Z" fill="url(#paint0_linear_994_683)"/>
<path d="M48.6028 28.5095L44.564 32.0348C44.2086 31.7476 43.8681 31.4417 43.545 31.1171L38.3881 25.9392L42.0691 22.2423L47.2247 27.4215C47.6445 27.843 48.1075 28.2074 48.6028 28.5108V28.5095Z" fill="url(#paint1_linear_994_683)"/>
<path d="M37.4014 26.9291L36.3044 28.0296C35.4018 28.9348 34.2032 29.4347 32.928 29.4347C31.6527 29.4347 30.4541 28.9361 29.5515 28.0296L29.2482 27.7249L36.812 20.1284C37.2466 21.2886 38.0179 23.9372 37.4014 26.9303V26.9291Z" fill="url(#paint2_linear_994_683)"/>
<path d="M59.9255 32.2463C59.8983 32.2674 59.871 32.2885 59.8438 32.3084C57.6808 33.9299 55.1005 34.7867 52.3815 34.7867C51.6263 34.7867 50.8673 34.7183 50.1207 34.5803C50.1207 34.5803 51.6151 32.7362 52.3803 29.564H52.3815C54.3291 29.564 56.1616 28.803 57.5384 27.4203C58.2454 26.7102 58.7889 25.8808 59.1542 24.9544C60.2066 22.2946 59.6271 19.2803 57.6833 17.2137C58.9524 18.4808 63.2227 23.5841 59.9268 32.2463H59.9255Z" fill="url(#paint3_linear_994_683)"/>
<path d="M60.5198 12.7172C60.2004 14.3051 58.7876 16.0684 57.6993 17.2323C57.6931 17.2261 57.6869 17.2199 57.682 17.2124C57.6349 17.1627 57.5866 17.1117 57.5371 17.0619C57.214 16.7374 56.8611 16.4439 56.4897 16.1903C55.2775 15.3596 53.8574 14.9206 52.3803 14.9206C50.429 14.9206 48.599 15.6817 47.2234 17.0619L44.6431 19.6546C44.7149 17.4512 45.4021 11.8791 50.3534 9.85341C51.0208 9.74398 51.7005 9.68927 52.3815 9.68927H52.4323C55.4249 9.7017 58.2701 10.7724 60.521 12.7159L60.5198 12.7172Z" fill="url(#paint4_linear_994_683)"/>
<path d="M50.1194 34.5803C49.5945 35.2903 49.0212 35.9718 48.4108 36.6097C48.3254 36.6992 48.2288 36.7974 48.1099 36.9181C44.9366 40.1051 40.9139 42.1283 36.5544 42.7749C36.8961 41.3175 37.7182 39.0345 39.6869 36.9168C41.2494 36.2503 42.7079 35.3301 44.0018 34.1799C44.5181 33.721 45.0096 33.2236 45.4653 32.6964C45.4653 32.6964 46.9857 33.8902 50.1182 34.5791L50.1194 34.5803Z" fill="url(#paint5_linear_994_683)"/>
<path d="M1.46778 26.6779C2.07818 27.8269 2.86564 28.8727 3.80786 29.7866C3.98368 29.9582 4.16445 30.1224 4.34893 30.2816C6.59987 32.2264 9.44511 33.2958 12.4377 33.3082H12.4885C13.1694 33.3082 13.8492 33.2535 14.5165 33.1441C14.7419 33.108 14.9647 33.0645 15.1876 33.016C17.5066 32.5062 19.6288 31.336 21.3263 29.6312L26.4039 24.5316L28.0581 22.8703L35.6219 15.2738L35.3185 14.9692C34.4172 14.0639 33.2174 13.564 31.9421 13.564C30.6668 13.564 29.4683 14.0627 28.5657 14.9692L27.4687 16.0697L26.4819 17.0607L21.3251 11.8828C21.0019 11.5583 20.6614 11.2511 20.3061 10.9651C20.0151 10.7313 19.7142 10.51 19.4035 10.3023C19.8591 9.77635 20.3507 9.27895 20.867 8.81886C22.1608 7.66862 23.6193 6.74844 25.1819 6.08193C27.1245 5.25252 29.2281 4.81481 31.3751 4.81481C35.248 4.81481 38.9822 6.23736 41.8869 8.8201L42.1345 9.0402L42.4094 8.85616C43.5534 8.09266 44.799 7.502 46.1102 7.10159L46.7788 6.89766L46.2946 6.39031C46.1956 6.28586 46.0941 6.18265 45.9913 6.07944C42.0887 2.1587 36.8972 0 31.3751 0C30.3412 0 29.3185 0.0758531 28.3144 0.223829C23.9549 0.870445 19.9322 2.89361 16.7588 6.08068C16.6387 6.2013 16.5421 6.29954 16.4579 6.38907C15.8475 7.02698 15.2743 7.70842 14.7493 8.41845C14.0027 8.28167 13.2437 8.21203 12.4885 8.21203C9.76951 8.21203 7.18922 9.0688 5.02619 10.6903C4.99772 10.7115 4.97048 10.7326 4.94448 10.7525C4.49008 11.0969 4.05673 11.4774 3.6531 11.8828C1.7216 13.8227 0.499553 16.2835 0.120682 18.9993C-0.247046 21.6256 0.232114 24.3526 1.46902 26.6779H1.46778ZM5.71584 18.0443C6.08109 17.1179 6.62587 16.2885 7.33161 15.5785C8.70842 14.1957 10.5396 13.4347 12.4885 13.4347H12.4897C13.843 13.4347 15.1406 13.8015 16.266 14.4904C16.7613 14.7926 17.2243 15.1569 17.6441 15.5797L22.7997 20.7589L20.2256 23.3441L17.6453 25.9368C16.271 27.3171 14.4398 28.0781 12.4885 28.0781C11.0114 28.0781 9.58998 27.6391 8.37908 26.8085C8.00887 26.5548 7.656 26.2613 7.33161 25.9368C7.28208 25.887 7.2338 25.8373 7.18675 25.7863C7.18056 25.7801 7.17437 25.7739 7.16941 25.7664C5.24039 23.701 4.66837 20.6967 5.71707 18.0456L5.71584 18.0443Z" fill="url(#paint6_linear_994_683)"/>
<path d="M16.2674 14.4891L20.3062 10.9638C20.6616 11.2511 21.002 11.557 21.3252 11.8815L26.482 17.0594L22.8011 20.7563L17.6454 15.5772C17.2257 15.1556 16.7627 14.7913 16.2674 14.4879V14.4891Z" fill="url(#paint7_linear_994_683)"/>
<path d="M27.4689 16.0697L28.5659 14.9692C29.4685 14.0639 30.667 13.564 31.9423 13.564C33.2176 13.564 34.4161 14.0627 35.3187 14.9692L35.6221 15.2738L28.0583 22.8703C27.6237 21.7101 26.8523 19.0615 27.4689 16.0684V16.0697Z" fill="url(#paint8_linear_994_683)"/>
<path d="M4.9435 10.7524C4.97073 10.7313 4.99797 10.7102 5.02521 10.6903C7.18824 9.06876 9.76853 8.21199 12.4875 8.21199C13.2427 8.21199 14.0017 8.28038 14.7483 8.41841C14.7483 8.41841 13.2539 10.2625 12.4887 13.4347H12.4875C10.5399 13.4347 8.70744 14.1957 7.33063 15.5784C6.62365 16.2885 6.08011 17.1179 5.71486 18.0443C4.66244 20.7041 5.24189 23.7184 7.18577 25.785C5.91667 24.5179 1.64633 19.4146 4.94226 10.7524H4.9435Z" fill="url(#paint9_linear_994_683)"/>
<path d="M4.34914 30.2815C4.66858 28.6936 6.0813 26.9303 7.16962 25.7664C7.17581 25.7726 7.182 25.7788 7.18696 25.7863C7.234 25.836 7.28229 25.887 7.33182 25.9368C7.65497 26.2613 8.00784 26.5548 8.37928 26.8085C9.59142 27.6391 11.0116 28.0781 12.4887 28.0781C14.44 28.0781 16.27 27.317 17.6455 25.9368L20.2258 23.3441C20.154 25.5476 19.4668 31.1196 14.5155 33.1453C13.8481 33.2547 13.1684 33.3094 12.4874 33.3094H12.4367C9.44409 33.297 6.59884 32.2264 4.3479 30.2828L4.34914 30.2815Z" fill="url(#paint10_linear_994_683)"/>
<path d="M14.7495 8.41844C15.2745 7.7084 15.8478 7.02697 16.4582 6.38906C16.5436 6.29952 16.6402 6.20129 16.759 6.08067C19.9324 2.8936 23.9551 0.870432 28.3146 0.223816C27.9729 1.68119 27.1508 3.96424 25.1821 6.08191C23.6196 6.74843 22.161 7.66861 20.8672 8.81884C20.3509 9.27769 19.8593 9.77509 19.4037 10.3023C19.4037 10.3023 17.8833 9.10857 14.7508 8.41968L14.7495 8.41844Z" fill="url(#paint11_linear_994_683)"/>
<path d="M80.1889 14.55L77.5853 14.7092C77.5405 14.487 77.4443 14.2847 77.2984 14.1039C77.1492 13.9231 76.9568 13.7789 76.718 13.6711C76.4809 13.5633 76.1973 13.5086 75.8673 13.5086C75.4278 13.5086 75.0564 13.6014 74.7529 13.7855C74.4511 13.9696 74.3002 14.215 74.3002 14.5218C74.3002 14.7656 74.398 14.9729 74.5937 15.1437C74.7894 15.3128 75.1244 15.4488 75.6003 15.5516L77.4576 15.9247C78.4543 16.1287 79.1972 16.4571 79.6881 16.9131C80.1773 17.3675 80.421 17.9645 80.421 18.7041C80.421 19.3757 80.2254 19.9644 79.8323 20.4718C79.4377 20.9793 78.8987 21.374 78.2171 21.6575C77.5339 21.9395 76.7462 22.0821 75.8557 22.0821C74.4992 22.0821 73.418 21.7985 72.6153 21.2313C71.8127 20.6642 71.3417 19.8914 71.2041 18.9114L74.0017 18.7654C74.0846 19.1767 74.2886 19.4918 74.6136 19.709C74.9386 19.9263 75.3549 20.034 75.8623 20.034C76.3615 20.034 76.7628 19.9362 77.0663 19.7405C77.3714 19.5465 77.5273 19.2978 77.5306 18.9926C77.5256 18.7339 77.4162 18.5217 77.2022 18.3558C76.99 18.1883 76.66 18.059 76.2139 17.9711L74.4395 17.6179C73.4362 17.4189 72.6933 17.0706 72.2057 16.5765C71.7198 16.0839 71.4761 15.4538 71.4761 14.6876C71.4761 14.0293 71.6552 13.4621 72.0117 12.9862C72.3699 12.5103 72.8757 12.1438 73.5274 11.8834C74.1791 11.6264 74.9436 11.4987 75.8209 11.4987C77.1143 11.4987 78.1342 11.7723 78.8788 12.3212C79.625 12.8668 80.0595 13.613 80.1856 14.5583L80.1889 14.55ZM87.4108 15.9496V21.8781H84.5652V8.20693H87.3312V13.4356H87.449C87.6811 12.8303 88.0543 12.3544 88.57 12.0078C89.0857 11.6645 89.7341 11.4921 90.5135 11.4921C91.225 11.4921 91.8468 11.6463 92.3808 11.9564C92.9115 12.2648 93.3244 12.7059 93.6196 13.2814C93.9164 13.8585 94.064 14.5483 94.059 15.3493V21.8764H91.2134V15.8551C91.2183 15.2249 91.0591 14.7324 90.7358 14.3808C90.4124 14.0309 89.963 13.8552 89.3842 13.8552C88.9978 13.8552 88.6562 13.9364 88.3577 14.1006C88.0626 14.2664 87.8304 14.5052 87.6629 14.817C87.4971 15.1321 87.4125 15.5085 87.4075 15.948L87.4108 15.9496ZM105.228 17.5134V11.6264H108.07V21.8781H105.341V20.0141H105.236C105.004 20.6145 104.621 21.0987 104.084 21.4635C103.548 21.8283 102.896 22.0108 102.127 22.0108C101.44 22.0108 100.838 21.8549 100.318 21.5431C99.7968 21.233 99.3905 20.7902 99.097 20.2148C98.8068 19.641 98.6592 18.9545 98.6542 18.1535V11.6264H101.5V17.6477C101.505 18.253 101.667 18.7306 101.987 19.0822C102.306 19.4354 102.735 19.6112 103.274 19.6112C103.616 19.6112 103.938 19.5316 104.236 19.3724C104.533 19.2148 104.775 18.981 104.959 18.6676C105.143 18.3575 105.234 17.9728 105.229 17.5151L105.228 17.5134ZM115.534 15.9496V21.8781H112.689V11.6264H115.4V13.4356H115.521C115.746 12.8386 116.126 12.3643 116.662 12.0144C117.194 11.6662 117.843 11.4921 118.605 11.4921C119.317 11.4921 119.937 11.6479 120.466 11.9597C120.995 12.2698 121.406 12.7142 121.702 13.2913C121.995 13.8668 122.141 14.5533 122.141 15.3493V21.8764H119.295V15.8551C119.302 15.2282 119.143 14.7374 118.818 14.3825C118.493 14.0293 118.045 13.8535 117.473 13.8535C117.09 13.8535 116.753 13.9348 116.463 14.0989C116.173 14.2648 115.944 14.5036 115.781 14.8153C115.62 15.1304 115.538 15.5068 115.533 15.9463L115.534 15.9496ZM128.108 25.7038C127.746 25.7038 127.409 25.6756 127.098 25.6176C126.783 25.5629 126.524 25.4949 126.32 25.4136L126.96 23.286C127.461 23.4402 127.885 23.4817 128.232 23.4104C128.575 23.3358 128.847 23.0671 129.048 22.6044L129.217 22.1716L125.537 11.6264H128.529L130.65 19.1551H130.758L132.898 11.6264L135.908 11.6396L131.923 22.9875C131.733 23.5348 131.472 24.0123 131.146 24.4186C130.819 24.8266 130.406 25.1433 129.91 25.3689C129.411 25.5944 128.811 25.7071 128.108 25.7071V25.7038ZM142.353 22.0721C141.699 22.0721 141.115 21.9577 140.603 21.7288C140.091 21.5 139.688 21.1584 139.392 20.7057C139.097 20.2546 138.95 19.6908 138.95 19.0142C138.95 18.4454 139.054 17.9678 139.261 17.5797C139.472 17.1917 139.756 16.8783 140.115 16.6428C140.477 16.4073 140.888 16.2299 141.348 16.1105C141.809 15.9894 142.293 15.9048 142.8 15.8551C143.396 15.7937 143.875 15.7357 144.24 15.6793C144.605 15.6213 144.87 15.5383 145.032 15.4272C145.198 15.3161 145.281 15.152 145.281 14.9331V14.8916C145.281 14.4687 145.148 14.142 144.883 13.9099C144.619 13.681 144.245 13.5666 143.759 13.5666C143.246 13.5666 142.84 13.6777 142.538 13.9016C142.235 14.1271 142.034 14.4074 141.936 14.7457L139.308 14.5318C139.442 13.9099 139.704 13.3693 140.096 12.9132C140.487 12.4572 140.993 12.1056 141.615 11.8585C142.235 11.6115 142.955 11.4887 143.772 11.4887C144.344 11.4887 144.89 11.5551 145.412 11.6894C145.934 11.8237 146.4 12.031 146.807 12.3113C147.213 12.5915 147.533 12.9514 147.769 13.3875C148.004 13.8253 148.122 14.3493 148.122 14.9579V21.8748H145.427V20.4536H145.347C145.182 20.7737 144.961 21.0556 144.684 21.2977C144.411 21.5398 144.079 21.7288 143.691 21.8648C143.304 22.0008 142.857 22.0688 142.349 22.0688L142.353 22.0721ZM143.168 20.1103C143.586 20.1103 143.956 20.0258 144.278 19.8583C144.596 19.6924 144.847 19.4669 145.029 19.1833C145.211 18.8964 145.303 18.5731 145.303 18.2149V17.1254C145.213 17.1834 145.092 17.2348 144.94 17.2812C144.787 17.3277 144.614 17.3708 144.424 17.4089C144.233 17.4471 144.041 17.4819 143.847 17.5101C143.656 17.5383 143.482 17.5632 143.328 17.5864C142.994 17.6345 142.702 17.7124 142.455 17.8185C142.205 17.9247 142.011 18.0673 141.872 18.248C141.734 18.4288 141.664 18.6527 141.664 18.9197C141.664 19.306 141.805 19.5996 142.089 19.8019C142.371 20.0059 142.731 20.107 143.168 20.107V20.1103ZM162.239 21.8781H159.393V11.6264H162.105V13.4356H162.222C162.436 12.8353 162.795 12.3594 163.294 12.0111C163.791 11.6645 164.387 11.4921 165.081 11.4921C165.785 11.4921 166.383 11.6662 166.879 12.0144C167.372 12.3643 167.702 12.8386 167.867 13.4356H167.972C168.182 12.8469 168.562 12.3759 169.113 12.0211C169.66 11.6678 170.31 11.4921 171.063 11.4921C172.021 11.4921 172.799 11.7955 173.398 12.4025C173.997 13.0094 174.297 13.8701 174.297 14.9828V21.8764H171.458V15.5433C171.458 14.9745 171.307 14.5467 171.005 14.2598C170.701 13.9746 170.322 13.8336 169.867 13.8336C169.352 13.8336 168.949 13.9978 168.66 14.3245C168.372 14.6511 168.227 15.0823 168.227 15.6179V21.8781H165.471V15.4836C165.471 14.9795 165.329 14.5798 165.042 14.283C164.753 13.9828 164.375 13.8336 163.907 13.8336C163.592 13.8336 163.309 13.9132 163.057 14.0724C162.806 14.2299 162.607 14.4488 162.461 14.7324C162.315 15.016 162.241 15.346 162.241 15.7224V21.8781H162.239ZM181.729 21.8781H178.884V11.6264H181.729V21.8781ZM180.318 10.3047C179.895 10.3047 179.534 10.1637 179.232 9.88017C178.928 9.59826 178.776 9.2583 178.776 8.86031C178.776 8.46894 178.928 8.1323 179.232 7.85039C179.534 7.56848 179.894 7.42586 180.311 7.42586C180.741 7.42586 181.104 7.56682 181.404 7.85039C181.704 8.13396 181.854 8.46894 181.854 8.86031C181.854 9.2583 181.704 9.5966 181.404 9.88017C181.104 10.1637 180.743 10.3047 180.318 10.3047ZM189.192 15.9496V21.8781H186.346V11.6264H189.057V13.4356H189.178C189.406 12.8386 189.785 12.3643 190.319 12.0144C190.852 11.6662 191.5 11.4921 192.263 11.4921C192.974 11.4921 193.595 11.6479 194.124 11.9597C194.654 12.2698 195.067 12.7142 195.359 13.2913C195.652 13.8668 195.798 14.5533 195.798 15.3493V21.8764H192.956V15.8551C192.961 15.2282 192.8 14.7374 192.475 14.3825C192.15 14.0293 191.702 13.8535 191.134 13.8535C190.749 13.8535 190.412 13.9348 190.12 14.0989C189.83 14.2648 189.603 14.5036 189.442 14.8153C189.278 15.1304 189.195 15.5068 189.19 15.9463L189.192 15.9496ZM204.161 22.0439C203.384 22.0439 202.68 21.8433 202.049 21.442C201.42 21.039 200.923 20.4436 200.555 19.6576C200.186 18.8732 200.004 17.9097 200.004 16.7655C200.004 15.5914 200.193 14.613 200.571 13.8319C200.949 13.0525 201.453 12.4671 202.085 12.0758C202.714 11.6877 203.403 11.4921 204.156 11.4921C204.732 11.4921 205.213 11.5882 205.596 11.7823C205.98 11.9763 206.291 12.2151 206.529 12.502C206.767 12.7889 206.949 13.0708 207.075 13.3461H207.161V8.20693H210V21.8781H207.196V20.238H207.075C206.941 20.5232 206.753 20.8035 206.511 21.0821C206.269 21.3607 205.954 21.5895 205.568 21.7703C205.183 21.9527 204.715 22.0439 204.163 22.0439H204.161ZM205.063 19.782C205.523 19.782 205.911 19.656 206.229 19.4055C206.548 19.1535 206.791 18.8003 206.962 18.3475C207.135 17.8932 207.221 17.3608 207.221 16.7522C207.221 16.142 207.136 15.613 206.966 15.1619C206.798 14.7142 206.554 14.3659 206.233 14.1205C205.913 13.8767 205.523 13.754 205.063 13.754C204.596 13.754 204.203 13.8817 203.881 14.1371C203.563 14.3891 203.321 14.7407 203.155 15.1918C202.991 15.6395 202.909 16.1602 202.909 16.7522C202.909 17.3492 202.992 17.8749 203.158 18.3293C203.326 18.7853 203.568 19.1435 203.884 19.4006C204.203 19.656 204.596 19.7836 205.063 19.7836V19.782Z" fill="url(#paint12_linear_994_683)"/>
<path d="M78.1607 30.8662C78.1607 31.5229 78.0363 32.0817 77.7876 32.5427C77.5388 33.0037 77.2022 33.3553 76.7777 33.5974C76.3515 33.8395 75.8722 33.9606 75.3416 33.9606C74.8043 33.9606 74.3234 33.8379 73.8988 33.5941C73.4743 33.352 73.1377 33.0004 72.8889 32.5394C72.6418 32.0784 72.5191 31.5212 72.5191 30.8662C72.5191 30.2078 72.6418 29.6473 72.8889 29.188C73.1377 28.7269 73.4743 28.3754 73.8988 28.1333C74.3234 27.8911 74.8043 27.7701 75.3416 27.7701C75.8722 27.7701 76.3515 27.8911 76.7777 28.1333C77.2022 28.3754 77.5388 28.7269 77.7876 29.188C78.0363 29.649 78.1607 30.2078 78.1607 30.8662ZM76.8705 30.8662C76.8705 30.44 76.8075 30.0801 76.6798 29.7899C76.5538 29.4964 76.3764 29.2742 76.1475 29.1233C75.9187 28.9724 75.65 28.8977 75.3416 28.8977C75.0331 28.8977 74.7645 28.9724 74.5356 29.1233C74.3068 29.2742 74.1277 29.4964 74 29.7899C73.8723 30.0801 73.8093 30.44 73.8093 30.8662C73.8093 31.2907 73.8723 31.6489 74 31.9391C74.1277 32.2326 74.3051 32.4548 74.5356 32.6057C74.7645 32.7567 75.0331 32.8313 75.3416 32.8313C75.65 32.8313 75.9187 32.7567 76.1475 32.6057C76.3764 32.4548 76.5538 32.2326 76.6798 31.9391C76.8075 31.6489 76.8705 31.2907 76.8705 30.8662ZM80.6133 35.5708H79.358V29.3588H80.5934V30.1166H80.6515C80.7062 29.9956 80.7858 29.8712 80.8903 29.7435C80.9948 29.6175 81.1307 29.513 81.3016 29.4284C81.4707 29.3405 81.683 29.2974 81.935 29.2974C82.265 29.2974 82.5685 29.3836 82.8454 29.5561C83.1257 29.7286 83.3496 29.9856 83.5138 30.3305C83.6812 30.6738 83.7658 31.105 83.7658 31.624C83.7658 32.1281 83.6846 32.5527 83.5204 32.8976C83.3595 33.2442 83.1406 33.5062 82.8637 33.6853C82.5851 33.8611 82.275 33.949 81.9301 33.949C81.6879 33.949 81.4823 33.9092 81.3115 33.8279C81.1424 33.7467 81.0031 33.6455 80.8936 33.5245C80.7875 33.4017 80.7062 33.2774 80.6482 33.1513H80.61V35.5692L80.6133 35.5708ZM80.5852 31.6174C80.5852 31.8844 80.6233 32.1199 80.6996 32.3222C80.7742 32.5212 80.882 32.6771 81.0213 32.7865C81.1639 32.8976 81.3364 32.9523 81.537 32.9523C81.741 32.9523 81.9135 32.896 82.0528 32.7832C82.1954 32.6704 82.3015 32.5129 82.3745 32.3122C82.4491 32.1132 82.4856 31.8811 82.4856 31.6174C82.4856 31.3554 82.4491 31.1265 82.3778 30.9292C82.3065 30.7318 82.1987 30.576 82.0561 30.4649C81.9151 30.3521 81.7427 30.2957 81.537 30.2957C81.3331 30.2957 81.1606 30.3504 81.0213 30.4582C80.8803 30.566 80.7742 30.7202 80.6996 30.9176C80.6233 31.1149 80.5852 31.3487 80.5852 31.619V31.6174ZM84.5651 29.3588H87.2864V30.299H84.5651V29.3588ZM85.1787 32.6522V28.2742H86.434V32.4863C86.434 32.6024 86.4506 32.6936 86.4855 32.7567C86.5219 32.8197 86.5717 32.8644 86.6347 32.891C86.6977 32.9158 86.7723 32.9291 86.8569 32.9291C86.915 32.9291 86.973 32.9241 87.0327 32.9125C87.0924 32.9026 87.1372 32.8926 87.1703 32.8877L87.3644 33.818C87.303 33.8395 87.2151 33.8628 87.1007 33.8876C86.9879 33.9158 86.8503 33.9307 86.6861 33.9357C86.3843 33.949 86.1206 33.9092 85.8934 33.818C85.6679 33.7251 85.4938 33.5808 85.3678 33.3885C85.2401 33.1928 85.177 32.9474 85.1804 32.6522H85.1787ZM89.6329 33.876H88.3809V29.3588H89.6329V33.876ZM89.0127 28.775C88.8287 28.775 88.6695 28.712 88.5351 28.5876C88.4008 28.4649 88.3345 28.3157 88.3345 28.1416C88.3345 27.9674 88.4008 27.8182 88.5351 27.6955C88.6695 27.5694 88.827 27.5081 89.0094 27.5081C89.1985 27.5081 89.3593 27.5711 89.4903 27.6955C89.6246 27.8182 89.691 27.9674 89.691 28.1416C89.691 28.3157 89.6246 28.4649 89.4903 28.5876C89.3593 28.7137 89.2001 28.775 89.0127 28.775ZM92.1685 33.876H90.9132V29.3588H92.1071V30.1548H92.1619C92.2547 29.8894 92.4123 29.6805 92.6328 29.5279C92.8517 29.3753 93.1137 29.2991 93.4205 29.2991C93.7306 29.2991 93.9943 29.377 94.2099 29.5312C94.4288 29.6838 94.5747 29.8927 94.646 30.1564H94.6941C94.7853 29.8977 94.9528 29.6904 95.1949 29.5345C95.437 29.377 95.7239 29.2991 96.0556 29.2991C96.4785 29.2991 96.8217 29.4334 97.0854 29.7004C97.3491 29.9674 97.4801 30.3471 97.4801 30.838V33.8777H96.2314V31.0867C96.2314 30.8363 96.1651 30.6489 96.0307 30.5229C95.8964 30.3952 95.7306 30.3322 95.5299 30.3322C95.3027 30.3322 95.1253 30.4052 94.9976 30.5494C94.8699 30.6937 94.8069 30.8844 94.8069 31.1199V33.8793H93.593V31.0602C93.593 30.8396 93.53 30.6622 93.4023 30.5312C93.2746 30.4002 93.1088 30.3339 92.9048 30.3339C92.7638 30.3339 92.6395 30.3687 92.5284 30.4383C92.4173 30.508 92.3294 30.6058 92.2647 30.7318C92.2017 30.8546 92.1685 31.0005 92.1685 31.168V33.8793V33.876ZM100.002 33.876H98.7504V29.3588H100.002V33.876ZM99.3822 28.775C99.1981 28.775 99.0389 28.712 98.9046 28.5876C98.7703 28.4649 98.7039 28.3157 98.7039 28.1416C98.7039 27.9674 98.7703 27.8182 98.9046 27.6955C99.0389 27.5694 99.1965 27.5081 99.3789 27.5081C99.5679 27.5081 99.7288 27.5711 99.8598 27.6955C99.9941 27.8182 100.06 27.9674 100.06 28.1416C100.06 28.3157 99.9941 28.4649 99.8598 28.5876C99.7288 28.7137 99.5696 28.775 99.3822 28.775ZM105.044 30.6456L103.896 30.7153C103.876 30.6174 103.835 30.5295 103.772 30.4516C103.705 30.3703 103.621 30.3073 103.516 30.2609C103.41 30.2128 103.284 30.1879 103.14 30.1879C102.946 30.1879 102.783 30.2294 102.649 30.3123C102.515 30.3935 102.448 30.5013 102.448 30.6373C102.448 30.7435 102.492 30.833 102.579 30.9076C102.664 30.9823 102.812 31.042 103.022 31.09L103.841 31.2526C104.281 31.3438 104.608 31.4897 104.823 31.6887C105.04 31.8877 105.148 32.1514 105.148 32.4781C105.148 32.7732 105.06 33.0319 104.886 33.2558C104.712 33.478 104.475 33.6538 104.176 33.7782C103.875 33.9042 103.528 33.9656 103.135 33.9656C102.538 33.9656 102.062 33.8395 101.707 33.5891C101.352 33.3387 101.145 32.9971 101.085 32.5659L102.317 32.5029C102.354 32.6853 102.443 32.823 102.584 32.9175C102.729 33.0137 102.913 33.0601 103.135 33.0601C103.356 33.0601 103.533 33.017 103.667 32.9324C103.802 32.8479 103.87 32.7368 103.871 32.6008C103.87 32.488 103.821 32.3951 103.729 32.3205C103.632 32.2459 103.488 32.1895 103.292 32.1514L102.508 31.9955C102.069 31.9059 101.742 31.7534 101.526 31.5361C101.312 31.3172 101.205 31.0403 101.205 30.7053C101.205 30.4151 101.283 30.163 101.44 29.9541C101.598 29.7451 101.82 29.5826 102.107 29.4699C102.395 29.3554 102.734 29.2974 103.12 29.2974C103.689 29.2974 104.138 29.4185 104.468 29.6606C104.798 29.901 104.989 30.2294 105.042 30.6456H105.044ZM108.281 33.9656C107.816 33.9656 107.417 33.871 107.083 33.682C106.748 33.4929 106.49 33.2243 106.309 32.8761C106.128 32.5278 106.039 32.1149 106.039 31.6373C106.039 31.1746 106.128 30.7667 106.309 30.4134C106.49 30.0635 106.745 29.7899 107.073 29.5942C107.4 29.3969 107.787 29.2974 108.229 29.2974C108.526 29.2974 108.805 29.3455 109.063 29.44C109.32 29.5362 109.546 29.6772 109.738 29.8662C109.932 30.0569 110.082 30.2957 110.191 30.5826C110.299 30.8711 110.354 31.2078 110.354 31.5925V31.9358H106.536V31.158H109.171C109.171 30.9773 109.133 30.8164 109.057 30.6771C108.979 30.5395 108.869 30.43 108.732 30.3488C108.591 30.2708 108.432 30.231 108.251 30.231C108.06 30.231 107.891 30.2742 107.745 30.362C107.599 30.4499 107.485 30.566 107.403 30.7119C107.321 30.8579 107.277 31.0204 107.276 31.1995V31.9358C107.276 32.1613 107.317 32.3537 107.4 32.5162C107.483 32.6804 107.601 32.8064 107.753 32.8959C107.906 32.9838 108.088 33.027 108.299 33.027C108.44 33.027 108.566 33.0071 108.682 32.9689C108.798 32.9291 108.899 32.8694 108.982 32.7898C109.063 32.7119 109.125 32.6157 109.17 32.5029L110.325 32.5792C110.267 32.8578 110.148 33.0999 109.966 33.3056C109.785 33.5145 109.553 33.6754 109.267 33.7898C108.981 33.9042 108.652 33.9622 108.279 33.9622L108.281 33.9656ZM114.907 33.876H113.655V29.3588H114.849V30.1548H114.904C114.997 29.8894 115.153 29.6805 115.372 29.5279C115.592 29.3753 115.856 29.2991 116.161 29.2991C116.471 29.2991 116.735 29.377 116.95 29.5312C117.169 29.6838 117.315 29.8927 117.387 30.1564H117.435C117.526 29.8977 117.693 29.6904 117.935 29.5345C118.178 29.377 118.464 29.2991 118.796 29.2991C119.219 29.2991 119.562 29.4334 119.826 29.7004C120.09 29.9674 120.221 30.3471 120.221 30.838V33.8777H118.972V31.0867C118.972 30.8363 118.906 30.6489 118.771 30.5229C118.637 30.3952 118.471 30.3322 118.27 30.3322C118.043 30.3322 117.866 30.4052 117.738 30.5494C117.61 30.6937 117.547 30.8844 117.547 31.1199V33.8793H116.33V31.0602C116.33 30.8396 116.267 30.6622 116.143 30.5312C116.015 30.4002 115.849 30.3339 115.642 30.3339C115.504 30.3339 115.38 30.3687 115.269 30.4383C115.156 30.508 115.068 30.6058 115.005 30.7318C114.939 30.8546 114.906 31.0005 114.906 31.168V33.8793L114.907 33.876ZM122.745 33.876H121.493V29.3588H122.745V33.876ZM122.123 28.775C121.935 28.775 121.776 28.712 121.645 28.5876C121.511 28.4649 121.444 28.3157 121.444 28.1416C121.444 27.9674 121.511 27.8182 121.645 27.6955C121.776 27.5694 121.935 27.5081 122.119 27.5081C122.308 27.5081 122.469 27.5711 122.6 27.6955C122.731 27.8182 122.798 27.9674 122.798 28.1416C122.798 28.3157 122.731 28.4649 122.6 28.5876C122.469 28.7137 122.31 28.775 122.123 28.775ZM125.28 31.2642V33.876H124.025V29.3588H125.219V30.1548H125.273C125.373 29.8911 125.54 29.6838 125.778 29.5296C126.011 29.3753 126.297 29.2974 126.632 29.2974C126.947 29.2974 127.22 29.3671 127.454 29.5047C127.688 29.6423 127.869 29.838 128 30.0901C128.129 30.3455 128.194 30.6473 128.194 30.9988V33.876H126.938V31.2227C126.94 30.9458 126.87 30.7318 126.728 30.576C126.584 30.4184 126.386 30.3405 126.136 30.3405C125.968 30.3405 125.819 30.377 125.69 30.4483C125.562 30.5229 125.463 30.629 125.39 30.7667C125.317 30.9043 125.282 31.0701 125.282 31.2642H125.28ZM131.122 33.949C130.779 33.949 130.469 33.8611 130.192 33.6853C129.913 33.5062 129.695 33.2442 129.532 32.8976C129.371 32.551 129.29 32.1265 129.29 31.624C129.29 31.105 129.373 30.6738 129.539 30.3305C129.706 29.9873 129.928 29.7286 130.205 29.5561C130.484 29.3836 130.789 29.2974 131.119 29.2974C131.371 29.2974 131.583 29.3405 131.753 29.4284C131.922 29.513 132.059 29.6191 132.164 29.7435C132.27 29.8712 132.35 29.9956 132.403 30.1166H132.441V27.8513H133.693V33.876H132.457V33.153H132.403C132.345 33.279 132.262 33.4017 132.154 33.5261C132.048 33.6472 131.91 33.7483 131.739 33.8296C131.57 33.9108 131.363 33.9506 131.121 33.9506L131.122 33.949ZM131.52 32.9523C131.723 32.9523 131.893 32.8976 132.033 32.7865C132.174 32.6754 132.28 32.5212 132.354 32.3222C132.431 32.1199 132.469 31.886 132.469 31.6174C132.469 31.3471 132.432 31.1133 132.358 30.9159C132.283 30.7186 132.175 30.566 132.033 30.4566C131.892 30.3488 131.721 30.294 131.52 30.294C131.315 30.294 131.141 30.3504 130.998 30.4632C130.857 30.576 130.751 30.7302 130.676 30.9275C130.603 31.1249 130.569 31.3537 130.569 31.6157C130.569 31.8794 130.605 32.1099 130.68 32.3106C130.754 32.5129 130.862 32.6688 131.001 32.7815C131.142 32.8943 131.315 32.9507 131.52 32.9507V32.9523ZM135.732 33.9523C135.538 33.9523 135.374 33.8827 135.235 33.745C135.097 33.6074 135.028 33.4399 135.028 33.2442C135.028 33.0535 135.097 32.8877 135.235 32.75C135.373 32.614 135.538 32.546 135.732 32.546C135.922 32.546 136.086 32.614 136.227 32.75C136.369 32.8877 136.441 33.0535 136.441 33.2442C136.441 33.3735 136.407 33.4929 136.341 33.6007C136.275 33.7069 136.189 33.7914 136.082 33.8561C135.976 33.9191 135.86 33.9523 135.732 33.9523ZM143.414 31.6555V27.8513H144.686V31.7633C144.686 32.2028 144.581 32.5875 144.374 32.9159C144.165 33.2459 143.873 33.5012 143.498 33.6837C143.125 33.8677 142.689 33.9606 142.192 33.9606C141.691 33.9606 141.253 33.8677 140.878 33.6837C140.502 33.5012 140.21 33.2459 140.003 32.9159C139.797 32.5858 139.694 32.2028 139.694 31.7633V27.8513H140.966V31.6555C140.966 31.8844 141.018 32.0884 141.119 32.2674C141.22 32.4465 141.362 32.5858 141.545 32.6887C141.729 32.7898 141.945 32.8412 142.192 32.8412C142.439 32.8412 142.653 32.7898 142.835 32.6887C143.017 32.5875 143.16 32.4465 143.261 32.2674C143.362 32.0884 143.414 31.8844 143.414 31.6555ZM147.243 31.2642V33.876H145.991V29.3588H147.185V30.1548H147.24C147.339 29.8911 147.507 29.6838 147.74 29.5296C147.976 29.3753 148.261 29.2974 148.598 29.2974C148.913 29.2974 149.186 29.3671 149.42 29.5047C149.654 29.6423 149.835 29.838 149.966 30.0901C150.094 30.3455 150.157 30.6473 150.157 30.9988V33.876H148.905V31.2227C148.906 30.9458 148.837 30.7318 148.694 30.576C148.55 30.4184 148.352 30.3405 148.102 30.3405C147.934 30.3405 147.785 30.377 147.656 30.4483C147.528 30.5229 147.429 30.629 147.356 30.7667C147.283 30.9043 147.246 31.0701 147.245 31.2642H147.243ZM151.423 27.8513H152.679V33.876H151.423V27.8513ZM156.002 33.9656C155.543 33.9656 155.148 33.8677 154.816 33.672C154.483 33.4764 154.228 33.2044 154.049 32.8528C153.868 32.5029 153.778 32.095 153.778 31.6323C153.778 31.168 153.868 30.76 154.049 30.4085C154.228 30.0586 154.483 29.7849 154.816 29.5893C155.148 29.3936 155.543 29.2957 156.002 29.2957C156.458 29.2957 156.853 29.3936 157.184 29.5893C157.518 29.7849 157.775 30.0569 157.956 30.4085C158.136 30.7584 158.226 31.1663 158.226 31.6323C158.226 32.095 158.136 32.5013 157.956 32.8528C157.775 33.2027 157.518 33.4764 157.184 33.672C156.853 33.8677 156.46 33.9656 156.002 33.9656ZM156.005 32.9938C156.214 32.9938 156.388 32.9341 156.528 32.8147C156.665 32.6953 156.772 32.5328 156.843 32.3271C156.914 32.1215 156.951 31.8877 156.951 31.6257C156.951 31.362 156.914 31.1282 156.843 30.9209C156.772 30.7136 156.665 30.5527 156.528 30.4334C156.387 30.3123 156.213 30.2509 156.005 30.2509C155.796 30.2509 155.622 30.3123 155.48 30.4334C155.337 30.5527 155.231 30.7153 155.158 30.9209C155.085 31.1265 155.05 31.362 155.05 31.6257C155.05 31.8877 155.087 32.1199 155.158 32.3271C155.231 32.5328 155.337 32.6953 155.48 32.8147C155.622 32.9341 155.796 32.9938 156.005 32.9938ZM161.363 33.9656C160.902 33.9656 160.506 33.8661 160.171 33.6687C159.839 33.4714 159.586 33.1978 159.407 32.8462C159.228 32.4946 159.14 32.0917 159.14 31.6323C159.14 31.1713 159.229 30.765 159.41 30.4151C159.589 30.0652 159.843 29.7899 160.174 29.5926C160.506 29.3952 160.901 29.2957 161.36 29.2957C161.753 29.2957 162.098 29.3687 162.395 29.513C162.69 29.6556 162.924 29.8563 163.096 30.115C163.271 30.3737 163.367 30.6771 163.383 31.0254H162.201C162.168 30.7998 162.078 30.6191 161.937 30.4798C161.795 30.3421 161.609 30.2725 161.38 30.2725C161.186 30.2725 161.019 30.3239 160.874 30.4284C160.73 30.5345 160.617 30.6871 160.536 30.8877C160.455 31.0867 160.415 31.3288 160.415 31.6141C160.415 31.9026 160.455 32.148 160.536 32.3504C160.614 32.5527 160.727 32.7069 160.871 32.813C161.017 32.9192 161.188 32.9722 161.38 32.9722C161.523 32.9722 161.65 32.9424 161.765 32.8827C161.879 32.823 161.975 32.7368 162.052 32.624C162.128 32.5112 162.178 32.3752 162.201 32.216H163.383C163.363 32.5626 163.271 32.8661 163.103 33.1265C162.936 33.3885 162.703 33.5908 162.408 33.7384C162.115 33.8876 161.766 33.9606 161.363 33.9606V33.9656ZM166.435 31.6307L165.605 32.5776L165.609 31.0735H165.791L167.237 29.3588H168.677L166.73 31.6307H166.433H166.435ZM165.725 33.876H164.469V27.8513H165.725V33.876ZM168.761 33.876H167.295L165.964 31.9076L166.798 31.0221L168.76 33.876H168.761ZM173.026 35.5708H171.771V29.3588H173.006V30.1166H173.065C173.118 29.9956 173.197 29.8712 173.303 29.7435C173.408 29.6175 173.544 29.513 173.715 29.4284C173.884 29.3405 174.096 29.2974 174.348 29.2974C174.678 29.2974 174.982 29.3836 175.258 29.5561C175.537 29.7286 175.759 29.9856 175.927 30.3305C176.093 30.6738 176.176 31.105 176.176 31.624C176.176 32.1281 176.094 32.5527 175.933 32.8976C175.773 33.2442 175.552 33.5062 175.273 33.6853C174.996 33.8611 174.688 33.949 174.343 33.949C174.101 33.949 173.895 33.9092 173.725 33.8279C173.555 33.7467 173.416 33.6455 173.307 33.5245C173.199 33.4017 173.116 33.2774 173.061 33.1513H173.023V35.5692L173.026 35.5708ZM172.998 31.6174C172.998 31.8844 173.035 32.1199 173.109 32.3222C173.184 32.5212 173.292 32.6771 173.434 32.7865C173.575 32.8976 173.746 32.9523 173.95 32.9523C174.154 32.9523 174.326 32.896 174.466 32.7832C174.607 32.6704 174.713 32.5129 174.788 32.3122C174.862 32.1132 174.899 31.8811 174.899 31.6174C174.899 31.3554 174.862 31.1265 174.791 30.9292C174.716 30.7318 174.608 30.576 174.469 30.4649C174.327 30.3521 174.154 30.2957 173.95 30.2957C173.744 30.2957 173.57 30.3504 173.431 30.4582C173.29 30.566 173.184 30.7202 173.109 30.9176C173.035 31.1149 172.998 31.3487 172.998 31.619V31.6174ZM179.335 33.9656C178.879 33.9656 178.482 33.8677 178.149 33.672C177.817 33.4764 177.562 33.2044 177.381 32.8528C177.2 32.5029 177.111 32.095 177.111 31.6323C177.111 31.168 177.2 30.76 177.381 30.4085C177.562 30.0586 177.817 29.7849 178.149 29.5893C178.482 29.3936 178.877 29.2957 179.335 29.2957C179.791 29.2957 180.185 29.3936 180.517 29.5893C180.85 29.7849 181.107 30.0569 181.288 30.4085C181.469 30.7584 181.558 31.1663 181.558 31.6323C181.558 32.095 181.469 32.5013 181.288 32.8528C181.107 33.2027 180.85 33.4764 180.517 33.672C180.185 33.8677 179.792 33.9656 179.335 33.9656ZM179.341 32.9938C179.55 32.9938 179.723 32.9341 179.86 32.8147C180.001 32.6953 180.106 32.5328 180.175 32.3271C180.248 32.1215 180.283 31.8877 180.283 31.6257C180.283 31.362 180.247 31.1282 180.175 30.9209C180.106 30.7153 180 30.5527 179.86 30.4334C179.723 30.3123 179.549 30.2509 179.341 30.2509C179.131 30.2509 178.955 30.3123 178.812 30.4334C178.67 30.5527 178.564 30.7153 178.491 30.9209C178.421 31.1265 178.386 31.362 178.386 31.6257C178.386 31.8877 178.421 32.1199 178.491 32.3271C178.564 32.5328 178.67 32.6953 178.812 32.8147C178.955 32.9341 179.131 32.9938 179.341 32.9938ZM182.339 29.3588H185.061V30.299H182.339V29.3588ZM182.956 32.6522V28.2742H184.208V32.4863C184.208 32.6024 184.227 32.6936 184.263 32.7567C184.3 32.8197 184.349 32.8644 184.412 32.891C184.475 32.9158 184.55 32.9291 184.633 32.9291C184.693 32.9291 184.752 32.9241 184.812 32.9125C184.87 32.9026 184.913 32.8926 184.946 32.8877L185.144 33.818C185.082 33.8395 184.994 33.8628 184.88 33.8876C184.766 33.9158 184.628 33.9307 184.465 33.9357C184.164 33.949 183.9 33.9092 183.673 33.818C183.446 33.7251 183.27 33.5808 183.144 33.3885C183.018 33.1928 182.956 32.9474 182.96 32.6522H182.956ZM188.168 33.9656C187.704 33.9656 187.304 33.871 186.971 33.682C186.636 33.4929 186.377 33.2243 186.197 32.8761C186.016 32.5278 185.926 32.1149 185.926 31.6373C185.926 31.1746 186.016 30.7667 186.197 30.4134C186.377 30.0635 186.633 29.7899 186.961 29.5942C187.291 29.3969 187.676 29.2974 188.117 29.2974C188.417 29.2974 188.694 29.3455 188.951 29.44C189.208 29.5362 189.434 29.6772 189.626 29.8662C189.82 30.0569 189.969 30.2957 190.079 30.5826C190.187 30.8711 190.241 31.2078 190.241 31.5925V31.9358H186.424V31.158H189.062C189.062 30.9773 189.023 30.8164 188.945 30.6771C188.867 30.5395 188.757 30.43 188.62 30.3488C188.482 30.2708 188.321 30.231 188.139 30.231C187.948 30.231 187.779 30.2742 187.633 30.362C187.489 30.4499 187.374 30.566 187.291 30.7119C187.208 30.8579 187.165 31.0204 187.164 31.1995V31.9358C187.164 32.1613 187.205 32.3537 187.288 32.5162C187.372 32.6804 187.492 32.8064 187.644 32.8959C187.797 32.9838 187.978 33.027 188.187 33.027C188.328 33.027 188.454 33.0071 188.57 32.9689C188.686 32.9291 188.787 32.8694 188.87 32.7898C188.951 32.7119 189.013 32.6157 189.057 32.5029L190.216 32.5792C190.157 32.8578 190.036 33.0999 189.853 33.3056C189.673 33.5145 189.44 33.6754 189.155 33.7898C188.868 33.9042 188.54 33.9622 188.167 33.9622L188.168 33.9656ZM192.595 31.2642V33.876H191.342V29.3588H192.536V30.1548H192.588C192.689 29.8911 192.858 29.6838 193.092 29.5296C193.328 29.3753 193.613 29.2974 193.949 29.2974C194.264 29.2974 194.538 29.3671 194.772 29.5047C195.004 29.6423 195.183 29.838 195.314 30.0901C195.444 30.3455 195.508 30.6473 195.508 30.9988V33.876H194.256V31.2227C194.258 30.9458 194.188 30.7318 194.046 30.576C193.901 30.4184 193.704 30.3405 193.454 30.3405C193.286 30.3405 193.137 30.377 193.007 30.4483C192.88 30.5229 192.78 30.629 192.707 30.7667C192.634 30.9043 192.598 31.0701 192.596 31.2642H192.595ZM196.455 29.3588H199.176V30.299H196.455V29.3588ZM197.074 32.6522V28.2742H198.329V32.4863C198.329 32.6024 198.346 32.6936 198.38 32.7567C198.417 32.8197 198.467 32.8644 198.53 32.891C198.593 32.9158 198.667 32.9291 198.75 32.9291C198.81 32.9291 198.87 32.9241 198.929 32.9125C198.989 32.9026 199.034 32.8926 199.064 32.8877L199.261 33.818C199.2 33.8395 199.112 33.8628 198.997 33.8876C198.885 33.9158 198.747 33.9307 198.583 33.9357C198.281 33.949 198.017 33.9092 197.79 33.818C197.563 33.7251 197.387 33.5808 197.261 33.3885C197.135 33.1928 197.074 32.9474 197.077 32.6522H197.074ZM201.528 33.876H200.276V29.3588H201.528V33.876ZM200.906 28.775C200.719 28.775 200.559 28.712 200.428 28.5876C200.294 28.4649 200.228 28.3157 200.228 28.1416C200.228 27.9674 200.294 27.8182 200.428 27.6955C200.559 27.5694 200.719 27.5081 200.903 27.5081C201.092 27.5081 201.253 27.5711 201.384 27.6955C201.515 27.8182 201.581 27.9674 201.581 28.1416C201.581 28.3157 201.515 28.4649 201.384 28.5876C201.253 28.7137 201.093 28.775 200.906 28.775ZM204.098 33.9622C203.81 33.9622 203.553 33.9108 203.327 33.8097C203.1 33.7102 202.921 33.5609 202.792 33.3603C202.662 33.1596 202.597 32.9125 202.597 32.614C202.597 32.3636 202.644 32.1514 202.735 31.9806C202.826 31.8114 202.952 31.6738 203.112 31.5693C203.271 31.4648 203.453 31.3869 203.657 31.3338C203.859 31.2807 204.072 31.2443 204.294 31.2227C204.558 31.1945 204.77 31.1696 204.931 31.1464C205.092 31.1216 205.209 31.0834 205.281 31.0353C205.354 30.9872 205.388 30.9143 205.388 30.8181V30.7982C205.388 30.6141 205.33 30.4698 205.213 30.3687C205.097 30.2642 204.931 30.2128 204.715 30.2128C204.49 30.2128 204.311 30.2625 204.176 30.362C204.045 30.4615 203.956 30.5859 203.913 30.7352L202.757 30.639C202.815 30.3654 202.929 30.1266 203.1 29.9259C203.274 29.7269 203.498 29.5727 203.772 29.4632C204.044 29.3521 204.36 29.2974 204.722 29.2974C204.972 29.2974 205.213 29.3273 205.445 29.387C205.674 29.4467 205.879 29.5379 206.06 29.6606C206.239 29.7833 206.38 29.9425 206.485 30.1349C206.589 30.3289 206.64 30.5594 206.64 30.8264V33.876H205.451V33.2492H205.417C205.344 33.3918 205.247 33.5162 205.126 33.6223C205.004 33.7284 204.856 33.813 204.687 33.8744C204.518 33.9341 204.32 33.9639 204.098 33.9639V33.9622ZM204.455 33.0966C204.639 33.0966 204.801 33.0601 204.942 32.9888C205.085 32.9142 205.196 32.8147 205.277 32.6887C205.359 32.5626 205.398 32.4217 205.398 32.2625V31.7849C205.359 31.8098 205.304 31.833 205.236 31.8512C205.168 31.8728 205.093 31.891 205.01 31.9093C204.926 31.9258 204.841 31.9408 204.755 31.954C204.672 31.9673 204.596 31.9772 204.526 31.9855C204.38 32.0071 204.251 32.0419 204.141 32.09C204.034 32.1364 203.947 32.1995 203.886 32.2774C203.825 32.3587 203.793 32.4565 203.793 32.5742C203.793 32.7434 203.856 32.8744 203.981 32.9623C204.107 33.0518 204.264 33.0966 204.455 33.0966ZM207.896 27.8513H209.151V33.876H207.896V27.8513Z" fill="#46A8F7"/>
<defs>
<linearGradient id="paint0_linear_994_683" x1="41.4824" y1="45.6836" x2="41.4824" y2="-1.07603" gradientUnits="userSpaceOnUse">
<stop stop-color="#33B3FF"/>
<stop offset="1" stop-color="#9381D8"/>
</linearGradient>
<linearGradient id="paint1_linear_994_683" x1="43.6164" y1="22.4317" x2="43.6164" y2="32.213" gradientUnits="userSpaceOnUse">
<stop stop-color="#B4EC51"/>
<stop offset="1" stop-color="#429321"/>
</linearGradient>
<linearGradient id="paint2_linear_994_683" x1="43.5129" y1="12.756" x2="33.5084" y2="27.0416" gradientUnits="userSpaceOnUse">
<stop/>
<stop offset="1" stop-opacity="0"/>
</linearGradient>
<linearGradient id="paint3_linear_994_683" x1="55.7535" y1="17.4043" x2="55.7535" y2="34.9242" gradientUnits="userSpaceOnUse">
<stop stop-color="#FAD961"/>
<stop offset="1" stop-color="#F76B1C"/>
</linearGradient>
<linearGradient id="paint4_linear_994_683" x1="28.4064" y1="14.1176" x2="53.7109" y2="14.9341" gradientUnits="userSpaceOnUse">
<stop/>
<stop offset="1" stop-opacity="0"/>
</linearGradient>
<linearGradient id="paint5_linear_994_683" x1="53.3247" y1="21.9767" x2="42.3993" y2="39.4259" gradientUnits="userSpaceOnUse">
<stop/>
<stop offset="1" stop-opacity="0"/>
</linearGradient>
<linearGradient id="paint6_linear_994_683" x1="23.4463" y1="36.0228" x2="23.4463" y2="-10.7369" gradientUnits="userSpaceOnUse">
<stop stop-color="#33B3FF"/>
<stop offset="1" stop-color="#9381D8"/>
</linearGradient>
<linearGradient id="paint7_linear_994_683" x1="61.1413" y1="73.7391" x2="61.2119" y2="73.7391" gradientUnits="userSpaceOnUse">
<stop stop-color="#B4EC51"/>
<stop offset="1" stop-color="#429321"/>
</linearGradient>
<linearGradient id="paint8_linear_994_683" x1="21.9754" y1="30.2675" x2="31.98" y2="15.9819" gradientUnits="userSpaceOnUse">
<stop/>
<stop offset="1" stop-opacity="0"/>
</linearGradient>
<linearGradient id="paint9_linear_994_683" x1="9.35428" y1="8.40384" x2="9.35428" y2="25.9237" gradientUnits="userSpaceOnUse">
<stop stop-color="#FAD961"/>
<stop offset="1" stop-color="#F76B1C"/>
</linearGradient>
<linearGradient id="paint10_linear_994_683" x1="37.0818" y1="28.9052" x2="11.7773" y2="28.0894" gradientUnits="userSpaceOnUse">
<stop/>
<stop offset="1" stop-opacity="0"/>
</linearGradient>
<linearGradient id="paint11_linear_994_683" x1="12.1636" y1="21.0469" x2="23.089" y2="3.59763" gradientUnits="userSpaceOnUse">
<stop/>
<stop offset="1" stop-opacity="0"/>
</linearGradient>
<linearGradient id="paint12_linear_994_683" x1="140.602" y1="0.465724" x2="140.602" y2="38.1244" gradientUnits="userSpaceOnUse">
<stop offset="0.17" stop-color="#FFAC4E"/>
<stop offset="0.62" stop-color="#EF6C00"/>
<stop offset="1"/>
</linearGradient>
</defs>
</svg>
